{
	"asset":{
		"generator":"Khronos glTF Blender I/O v4.4.56",
		"version":"2.0"
	},
	"scene":0,
	"scenes":[
		{
			"name":"Scene",
			"nodes":[
				0,
				1,
				2,
				3,
				4,
				5,
				6,
				7,
				8,
				9,
				10,
				11,
				12,
				13,
				14,
				15
			]
		}
	],
	"nodes":[
		{
			"mesh":0,
			"name":"Cube.004",
			"scale":[
				0.1669532209634781,
				0.1669532209634781,
				0.1669532209634781
			]
		},
		{
			"mesh":1,
			"name":"Cube.013",
			"scale":[
				0.1669532209634781,
				0.1669532209634781,
				0.1669532209634781
			]
		},
		{
			"mesh":2,
			"name":"Plane.001",
			"scale":[
				0.1669532209634781,
				0.1669532209634781,
				0.1669532209634781
			]
		},
		{
			"mesh":3,
			"name":"Torus",
			"scale":[
				0.1669532209634781,
				0.1669532209634781,
				0.1669532209634781
			]
		},
		{
			"mesh":4,
			"name":"Cylinder",
			"scale":[
				0.1669532209634781,
				0.1669532209634781,
				0.1669532209634781
			]
		},
		{
			"mesh":5,
			"name":"Cube.055",
			"scale":[
				0.1669532209634781,
				0.1669532209634781,
				0.1669532209634781
			]
		},
		{
			"mesh":6,
			"name":"Cube.057",
			"scale":[
				0.1669532209634781,
				0.1669532209634781,
				0.1669532209634781
			]
		},
		{
			"mesh":7,
			"name":"Cube.058",
			"scale":[
				0.1669532209634781,
				0.1669532209634781,
				0.1669532209634781
			]
		},
		{
			"mesh":8,
			"name":"B\u00e9zierCurve.005",
			"scale":[
				0.1669532209634781,
				0.1669532209634781,
				0.1669532209634781
			]
		},
		{
			"mesh":9,
			"name":"B\u00e9zierCurve.006",
			"scale":[
				0.1669532209634781,
				0.1669532209634781,
				0.1669532209634781
			]
		},
		{
			"mesh":10,
			"name":"B\u00e9zierCurve.007",
			"scale":[
				0.1669532209634781,
				0.1669532209634781,
				0.1669532209634781
			]
		},
		{
			"mesh":11,
			"name":"B\u00e9zierCurve.008",
			"scale":[
				0.1669532209634781,
				0.1669532209634781,
				0.1669532209634781
			]
		},
		{
			"mesh":12,
			"name":"B\u00e9zierCurve.011",
			"scale":[
				0.1669532209634781,
				0.1669532209634781,
				0.1669532209634781
			]
		},
		{
			"mesh":13,
			"name":"B\u00e9zierCurve.012",
			"scale":[
				0.1669532209634781,
				0.1669532209634781,
				0.1669532209634781
			]
		},
		{
			"mesh":14,
			"name":"B\u00e9zierCurve.013",
			"scale":[
				0.1669532209634781,
				0.1669532209634781,
				0.1669532209634781
			]
		},
		{
			"mesh":15,
			"name":"Cube.061",
			"scale":[
				0.1669532209634781,
				0.1669532209634781,
				0.1669532209634781
			]
		}
	],
	"meshes":[
		{
			"name":"Cube.005",
			"primitives":[
				{
					"attributes":{
						"POSITION":0,
						"NORMAL":1,
						"TEXCOORD_0":2
					},
					"indices":3
				}
			]
		},
		{
			"name":"Cube.014",
			"primitives":[
				{
					"attributes":{
						"POSITION":4,
						"NORMAL":5,
						"TEXCOORD_0":6
					},
					"indices":7
				}
			]
		},
		{
			"name":"Plane.001",
			"primitives":[
				{
					"attributes":{
						"POSITION":8,
						"NORMAL":9,
						"TEXCOORD_0":10
					},
					"indices":11
				}
			]
		},
		{
			"name":"Torus",
			"primitives":[
				{
					"attributes":{
						"POSITION":12,
						"NORMAL":13,
						"TEXCOORD_0":14
					},
					"indices":15
				}
			]
		},
		{
			"name":"Cylinder",
			"primitives":[
				{
					"attributes":{
						"POSITION":16,
						"NORMAL":17,
						"TEXCOORD_0":18
					},
					"indices":19
				}
			]
		},
		{
			"name":"Cube.056",
			"primitives":[
				{
					"attributes":{
						"POSITION":20,
						"NORMAL":21,
						"TEXCOORD_0":22
					},
					"indices":23
				}
			]
		},
		{
			"name":"Cube.058",
			"primitives":[
				{
					"attributes":{
						"POSITION":24,
						"NORMAL":25,
						"TEXCOORD_0":26
					},
					"indices":27
				}
			]
		},
		{
			"name":"Cube.059",
			"primitives":[
				{
					"attributes":{
						"POSITION":28,
						"NORMAL":29,
						"TEXCOORD_0":30
					},
					"indices":31
				}
			]
		},
		{
			"name":"B\u00e9zierCurve.004",
			"primitives":[
				{
					"attributes":{
						"POSITION":32,
						"NORMAL":33,
						"TEXCOORD_0":34
					},
					"indices":35
				}
			]
		},
		{
			"name":"B\u00e9zierCurve.005",
			"primitives":[
				{
					"attributes":{
						"POSITION":36,
						"NORMAL":37,
						"TEXCOORD_0":38
					},
					"indices":39
				}
			]
		},
		{
			"name":"B\u00e9zierCurve.006",
			"primitives":[
				{
					"attributes":{
						"POSITION":40,
						"NORMAL":41,
						"TEXCOORD_0":42
					},
					"indices":43
				}
			]
		},
		{
			"name":"B\u00e9zierCurve.007",
			"primitives":[
				{
					"attributes":{
						"POSITION":44,
						"NORMAL":45,
						"TEXCOORD_0":46
					},
					"indices":43
				}
			]
		},
		{
			"name":"B\u00e9zierCurve.010",
			"primitives":[
				{
					"attributes":{
						"POSITION":47,
						"NORMAL":48,
						"TEXCOORD_0":49
					},
					"indices":43
				}
			]
		},
		{
			"name":"B\u00e9zierCurve.011",
			"primitives":[
				{
					"attributes":{
						"POSITION":50,
						"NORMAL":51,
						"TEXCOORD_0":52
					},
					"indices":53
				}
			]
		},
		{
			"name":"B\u00e9zierCurve.012",
			"primitives":[
				{
					"attributes":{
						"POSITION":54,
						"NORMAL":55,
						"TEXCOORD_0":56
					},
					"indices":43
				}
			]
		},
		{
			"name":"Cube.062",
			"primitives":[
				{
					"attributes":{
						"POSITION":57,
						"NORMAL":58,
						"TEXCOORD_0":59
					},
					"indices":27
				}
			]
		}
	],
	"accessors":[
		{
			"bufferView":0,
			"componentType":5126,
			"count":200,
			"max":[
				337.9071044921875,
				61.966819763183594,
				-658.2569580078125
			],
			"min":[
				-410.55999755859375,
				-3.23797607421875,
				-681.2867431640625
			],
			"type":"VEC3"
		},
		{
			"bufferView":1,
			"componentType":5126,
			"count":200,
			"type":"VEC3"
		},
		{
			"bufferView":2,
			"componentType":5126,
			"count":200,
			"type":"VEC2"
		},
		{
			"bufferView":3,
			"componentType":5123,
			"count":300,
			"type":"SCALAR"
		},
		{
			"bufferView":4,
			"componentType":5126,
			"count":220,
			"max":[
				416.6627197265625,
				63.9135627746582,
				-531.84716796875
			],
			"min":[
				-410.56005859375,
				-5.184719085693359,
				-554.876953125
			],
			"type":"VEC3"
		},
		{
			"bufferView":5,
			"componentType":5126,
			"count":220,
			"type":"VEC3"
		},
		{
			"bufferView":6,
			"componentType":5126,
			"count":220,
			"type":"VEC2"
		},
		{
			"bufferView":7,
			"componentType":5123,
			"count":330,
			"type":"SCALAR"
		},
		{
			"bufferView":8,
			"componentType":5126,
			"count":114,
			"max":[
				444.6893310546875,
				0,
				300.4766540527344
			],
			"min":[
				-444.6893310546875,
				-10.978625297546387,
				-701.4918823242188
			],
			"type":"VEC3"
		},
		{
			"bufferView":9,
			"componentType":5126,
			"count":114,
			"type":"VEC3"
		},
		{
			"bufferView":10,
			"componentType":5126,
			"count":114,
			"type":"VEC2"
		},
		{
			"bufferView":11,
			"componentType":5123,
			"count":276,
			"type":"SCALAR"
		},
		{
			"bufferView":12,
			"componentType":5126,
			"count":1056,
			"max":[
				-73.89657592773438,
				74.42473602294922,
				72.73136138916016
			],
			"min":[
				-184.1812744140625,
				5.472792148590088,
				-77.38092041015625
			],
			"type":"VEC3"
		},
		{
			"bufferView":13,
			"componentType":5126,
			"count":1056,
			"type":"VEC3"
		},
		{
			"bufferView":14,
			"componentType":5126,
			"count":1056,
			"type":"VEC2"
		},
		{
			"bufferView":15,
			"componentType":5123,
			"count":1584,
			"type":"SCALAR"
		},
		{
			"bufferView":16,
			"componentType":5126,
			"count":208,
			"max":[
				114.9764633178711,
				65.55220794677734,
				-72.26687622070312
			],
			"min":[
				32.12413787841797,
				-0.5352479815483093,
				-209.0814208984375
			],
			"type":"VEC3"
		},
		{
			"bufferView":17,
			"componentType":5126,
			"count":208,
			"type":"VEC3"
		},
		{
			"bufferView":18,
			"componentType":5126,
			"count":208,
			"type":"VEC2"
		},
		{
			"bufferView":19,
			"componentType":5123,
			"count":396,
			"type":"SCALAR"
		},
		{
			"bufferView":20,
			"componentType":5126,
			"count":452,
			"max":[
				-240.80819702148438,
				36.54465866088867,
				260.98162841796875
			],
			"min":[
				-302.9909362792969,
				-9.530099873700237e-07,
				102.12250518798828
			],
			"type":"VEC3"
		},
		{
			"bufferView":21,
			"componentType":5126,
			"count":452,
			"type":"VEC3"
		},
		{
			"bufferView":22,
			"componentType":5126,
			"count":452,
			"type":"VEC2"
		},
		{
			"bufferView":23,
			"componentType":5123,
			"count":861,
			"type":"SCALAR"
		},
		{
			"bufferView":24,
			"componentType":5126,
			"count":24,
			"max":[
				432.4853820800781,
				29.220882415771484,
				273.1474609375
			],
			"min":[
				419.9902038574219,
				-1.3564977645874023,
				68.86878204345703
			],
			"type":"VEC3"
		},
		{
			"bufferView":25,
			"componentType":5126,
			"count":24,
			"type":"VEC3"
		},
		{
			"bufferView":26,
			"componentType":5126,
			"count":24,
			"type":"VEC2"
		},
		{
			"bufferView":27,
			"componentType":5123,
			"count":36,
			"type":"SCALAR"
		},
		{
			"bufferView":28,
			"componentType":5126,
			"count":24,
			"max":[
				397.3170166015625,
				28.83063507080078,
				70.86862182617188
			],
			"min":[
				198.4329833984375,
				-1.3621301651000977,
				-71.65463256835938
			],
			"type":"VEC3"
		},
		{
			"bufferView":29,
			"componentType":5126,
			"count":24,
			"type":"VEC3"
		},
		{
			"bufferView":30,
			"componentType":5126,
			"count":24,
			"type":"VEC2"
		},
		{
			"bufferView":31,
			"componentType":5123,
			"count":36,
			"type":"SCALAR"
		},
		{
			"bufferView":32,
			"componentType":5126,
			"count":150,
			"max":[
				156.4482879638672,
				6.988492012023926,
				297.637451171875
			],
			"min":[
				-41.33760070800781,
				-3.0707082748413086,
				293.44012451171875
			],
			"type":"VEC3"
		},
		{
			"bufferView":33,
			"componentType":5126,
			"count":150,
			"type":"VEC3"
		},
		{
			"bufferView":34,
			"componentType":5126,
			"count":150,
			"type":"VEC2"
		},
		{
			"bufferView":35,
			"componentType":5123,
			"count":648,
			"type":"SCALAR"
		},
		{
			"bufferView":36,
			"componentType":5126,
			"count":72,
			"max":[
				-1.8600616455078125,
				6.988492012023926,
				179.4745635986328
			],
			"min":[
				-49.929691314697266,
				-0.042537689208984375,
				131.23228454589844
			],
			"type":"VEC3"
		},
		{
			"bufferView":37,
			"componentType":5126,
			"count":72,
			"type":"VEC3"
		},
		{
			"bufferView":38,
			"componentType":5126,
			"count":72,
			"type":"VEC2"
		},
		{
			"bufferView":39,
			"componentType":5123,
			"count":240,
			"type":"SCALAR"
		},
		{
			"bufferView":40,
			"componentType":5126,
			"count":260,
			"max":[
				271.80035400390625,
				3.8870983123779297,
				117.25782775878906
			],
			"min":[
				193.0699462890625,
				-0.08197331428527832,
				116.17781066894531
			],
			"type":"VEC3"
		},
		{
			"bufferView":41,
			"componentType":5126,
			"count":260,
			"type":"VEC3"
		},
		{
			"bufferView":42,
			"componentType":5126,
			"count":260,
			"type":"VEC2"
		},
		{
			"bufferView":43,
			"componentType":5123,
			"count":1368,
			"type":"SCALAR"
		},
		{
			"bufferView":44,
			"componentType":5126,
			"count":260,
			"max":[
				201.72842407226562,
				3.8870983123779297,
				132.12173461914062
			],
			"min":[
				122.99801635742188,
				-0.08197331428527832,
				131.04171752929688
			],
			"type":"VEC3"
		},
		{
			"bufferView":45,
			"componentType":5126,
			"count":260,
			"type":"VEC3"
		},
		{
			"bufferView":46,
			"componentType":5126,
			"count":260,
			"type":"VEC2"
		},
		{
			"bufferView":47,
			"componentType":5126,
			"count":260,
			"max":[
				302.23431396484375,
				3.8870983123779297,
				207.0886688232422
			],
			"min":[
				228.83078002929688,
				-0.08197331428527832,
				177.7455596923828
			],
			"type":"VEC3"
		},
		{
			"bufferView":48,
			"componentType":5126,
			"count":260,
			"type":"VEC3"
		},
		{
			"bufferView":49,
			"componentType":5126,
			"count":260,
			"type":"VEC2"
		},
		{
			"bufferView":50,
			"componentType":5126,
			"count":72,
			"max":[
				349.1638488769531,
				6.988492012023926,
				277.79644775390625
			],
			"min":[
				192.5860595703125,
				-0.042537689208984375,
				273.5991516113281
			],
			"type":"VEC3"
		},
		{
			"bufferView":51,
			"componentType":5126,
			"count":72,
			"type":"VEC3"
		},
		{
			"bufferView":52,
			"componentType":5126,
			"count":72,
			"type":"VEC2"
		},
		{
			"bufferView":53,
			"componentType":5123,
			"count":240,
			"type":"SCALAR"
		},
		{
			"bufferView":54,
			"componentType":5126,
			"count":260,
			"max":[
				-114.22955322265625,
				3.8870983123779297,
				-156.82904052734375
			],
			"min":[
				-115.30957794189453,
				-0.08197331428527832,
				-235.5594482421875
			],
			"type":"VEC3"
		},
		{
			"bufferView":55,
			"componentType":5126,
			"count":260,
			"type":"VEC3"
		},
		{
			"bufferView":56,
			"componentType":5126,
			"count":260,
			"type":"VEC2"
		},
		{
			"bufferView":57,
			"componentType":5126,
			"count":24,
			"max":[
				180.84494018554688,
				29.220882415771484,
				-84.56539916992188
			],
			"min":[
				168.34976196289062,
				-1.3564977645874023,
				-288.8440856933594
			],
			"type":"VEC3"
		},
		{
			"bufferView":58,
			"componentType":5126,
			"count":24,
			"type":"VEC3"
		},
		{
			"bufferView":59,
			"componentType":5126,
			"count":24,
			"type":"VEC2"
		}
	],
	"bufferViews":[
		{
			"buffer":0,
			"byteLength":2400,
			"byteOffset":0,
			"target":34962
		},
		{
			"buffer":0,
			"byteLength":2400,
			"byteOffset":2400,
			"target":34962
		},
		{
			"buffer":0,
			"byteLength":1600,
			"byteOffset":4800,
			"target":34962
		},
		{
			"buffer":0,
			"byteLength":600,
			"byteOffset":6400,
			"target":34963
		},
		{
			"buffer":0,
			"byteLength":2640,
			"byteOffset":7000,
			"target":34962
		},
		{
			"buffer":0,
			"byteLength":2640,
			"byteOffset":9640,
			"target":34962
		},
		{
			"buffer":0,
			"byteLength":1760,
			"byteOffset":12280,
			"target":34962
		},
		{
			"buffer":0,
			"byteLength":660,
			"byteOffset":14040,
			"target":34963
		},
		{
			"buffer":0,
			"byteLength":1368,
			"byteOffset":14700,
			"target":34962
		},
		{
			"buffer":0,
			"byteLength":1368,
			"byteOffset":16068,
			"target":34962
		},
		{
			"buffer":0,
			"byteLength":912,
			"byteOffset":17436,
			"target":34962
		},
		{
			"buffer":0,
			"byteLength":552,
			"byteOffset":18348,
			"target":34963
		},
		{
			"buffer":0,
			"byteLength":12672,
			"byteOffset":18900,
			"target":34962
		},
		{
			"buffer":0,
			"byteLength":12672,
			"byteOffset":31572,
			"target":34962
		},
		{
			"buffer":0,
			"byteLength":8448,
			"byteOffset":44244,
			"target":34962
		},
		{
			"buffer":0,
			"byteLength":3168,
			"byteOffset":52692,
			"target":34963
		},
		{
			"buffer":0,
			"byteLength":2496,
			"byteOffset":55860,
			"target":34962
		},
		{
			"buffer":0,
			"byteLength":2496,
			"byteOffset":58356,
			"target":34962
		},
		{
			"buffer":0,
			"byteLength":1664,
			"byteOffset":60852,
			"target":34962
		},
		{
			"buffer":0,
			"byteLength":792,
			"byteOffset":62516,
			"target":34963
		},
		{
			"buffer":0,
			"byteLength":5424,
			"byteOffset":63308,
			"target":34962
		},
		{
			"buffer":0,
			"byteLength":5424,
			"byteOffset":68732,
			"target":34962
		},
		{
			"buffer":0,
			"byteLength":3616,
			"byteOffset":74156,
			"target":34962
		},
		{
			"buffer":0,
			"byteLength":1722,
			"byteOffset":77772,
			"target":34963
		},
		{
			"buffer":0,
			"byteLength":288,
			"byteOffset":79496,
			"target":34962
		},
		{
			"buffer":0,
			"byteLength":288,
			"byteOffset":79784,
			"target":34962
		},
		{
			"buffer":0,
			"byteLength":192,
			"byteOffset":80072,
			"target":34962
		},
		{
			"buffer":0,
			"byteLength":72,
			"byteOffset":80264,
			"target":34963
		},
		{
			"buffer":0,
			"byteLength":288,
			"byteOffset":80336,
			"target":34962
		},
		{
			"buffer":0,
			"byteLength":288,
			"byteOffset":80624,
			"target":34962
		},
		{
			"buffer":0,
			"byteLength":192,
			"byteOffset":80912,
			"target":34962
		},
		{
			"buffer":0,
			"byteLength":72,
			"byteOffset":81104,
			"target":34963
		},
		{
			"buffer":0,
			"byteLength":1800,
			"byteOffset":81176,
			"target":34962
		},
		{
			"buffer":0,
			"byteLength":1800,
			"byteOffset":82976,
			"target":34962
		},
		{
			"buffer":0,
			"byteLength":1200,
			"byteOffset":84776,
			"target":34962
		},
		{
			"buffer":0,
			"byteLength":1296,
			"byteOffset":85976,
			"target":34963
		},
		{
			"buffer":0,
			"byteLength":864,
			"byteOffset":87272,
			"target":34962
		},
		{
			"buffer":0,
			"byteLength":864,
			"byteOffset":88136,
			"target":34962
		},
		{
			"buffer":0,
			"byteLength":576,
			"byteOffset":89000,
			"target":34962
		},
		{
			"buffer":0,
			"byteLength":480,
			"byteOffset":89576,
			"target":34963
		},
		{
			"buffer":0,
			"byteLength":3120,
			"byteOffset":90056,
			"target":34962
		},
		{
			"buffer":0,
			"byteLength":3120,
			"byteOffset":93176,
			"target":34962
		},
		{
			"buffer":0,
			"byteLength":2080,
			"byteOffset":96296,
			"target":34962
		},
		{
			"buffer":0,
			"byteLength":2736,
			"byteOffset":98376,
			"target":34963
		},
		{
			"buffer":0,
			"byteLength":3120,
			"byteOffset":101112,
			"target":34962
		},
		{
			"buffer":0,
			"byteLength":3120,
			"byteOffset":104232,
			"target":34962
		},
		{
			"buffer":0,
			"byteLength":2080,
			"byteOffset":107352,
			"target":34962
		},
		{
			"buffer":0,
			"byteLength":3120,
			"byteOffset":109432,
			"target":34962
		},
		{
			"buffer":0,
			"byteLength":3120,
			"byteOffset":112552,
			"target":34962
		},
		{
			"buffer":0,
			"byteLength":2080,
			"byteOffset":115672,
			"target":34962
		},
		{
			"buffer":0,
			"byteLength":864,
			"byteOffset":117752,
			"target":34962
		},
		{
			"buffer":0,
			"byteLength":864,
			"byteOffset":118616,
			"target":34962
		},
		{
			"buffer":0,
			"byteLength":576,
			"byteOffset":119480,
			"target":34962
		},
		{
			"buffer":0,
			"byteLength":480,
			"byteOffset":120056,
			"target":34963
		},
		{
			"buffer":0,
			"byteLength":3120,
			"byteOffset":120536,
			"target":34962
		},
		{
			"buffer":0,
			"byteLength":3120,
			"byteOffset":123656,
			"target":34962
		},
		{
			"buffer":0,
			"byteLength":2080,
			"byteOffset":126776,
			"target":34962
		},
		{
			"buffer":0,
			"byteLength":288,
			"byteOffset":128856,
			"target":34962
		},
		{
			"buffer":0,
			"byteLength":288,
			"byteOffset":129144,
			"target":34962
		},
		{
			"buffer":0,
			"byteLength":192,
			"byteOffset":129432,
			"target":34962
		}
	],
	"buffers":[
		{
			"byteLength":129624,
			"uri":"playground.bin"
		}
	]
}
